<?xml version="1.0" encoding="UTF-8" standalone="no"?>
<!-- Created with Inkscape (http://www.inkscape.org/) -->

<svg
   xmlns:dc="http://purl.org/dc/elements/1.1/"
   xmlns:cc="http://creativecommons.org/ns#"
   xmlns:rdf="http://www.w3.org/1999/02/22-rdf-syntax-ns#"
   xmlns:svg="http://www.w3.org/2000/svg"
   xmlns="http://www.w3.org/2000/svg"
   version="1.1"
   width="240"
   height="240"
   id="svg2">
  <title
     id="title3813">Etheric Synthesizer Icon</title>
  <defs
     id="defs4">
    <filter
       color-interpolation-filters="sRGB"
       id="filter3820">
      <feGaussianBlur
         id="feGaussianBlur3822"
         stdDeviation="3" />
    </filter>
  </defs>
  <metadata
     id="metadata7">
    <rdf:RDF>
      <cc:Work
         rdf:about="">
        <dc:format>image/svg+xml</dc:format>
        <dc:type
           rdf:resource="http://purl.org/dc/dcmitype/StillImage" />
        <dc:title>Etheric Synthesizer Icon</dc:title>
        <dc:date />
        <dc:creator>
          <cc:Agent>
            <dc:title>Nutchanon Wetchasit</dc:title>
          </cc:Agent>
        </dc:creator>
        <dc:rights>
          <cc:Agent>
            <dc:title>Nutchanon Wetchasit</dc:title>
          </cc:Agent>
        </dc:rights>
        <dc:description>Copyright (C) 2016 Nutchanon Wetchasit
This is free illustration; you can redistribute it and/or modify it under the terms of:
- GNU General Public License &lt;http://www.gnu.org/licenses/gpl.html&gt;, or...
- Creative Commons Attribution-ShareAlike License 3.0 Unported &lt;http://creativecommons.org/licenses/by-sa/3.0/&gt;, or...
- Free Art License 1.3 &lt;http://artlibre.org/licence/lal/en/&gt;</dc:description>
      </cc:Work>
    </rdf:RDF>
  </metadata>
  <g
     id="layer3"
     style="filter:url(#filter3820)">
    <path
       d="m 27.5,217.5 c -10,0 -10,-10 -10,-10 l 15,-30 155,0 25,0 15,30 -25,0 c 0,0 0,10 -10,10 z"
       id="path3891"
       style="opacity:0.5;color:#000000;fill:#a79e79;fill-opacity:1;stroke:#afa371;stroke-width:5;stroke-linecap:round;stroke-linejoin:round;stroke-miterlimit:4;stroke-opacity:1;stroke-dasharray:none;stroke-dashoffset:0;marker:none;visibility:visible;display:inline;overflow:visible;enable-background:accumulate" />
    <path
       d="m 117.5,127.5 c 15,5 39.8225,10.36849 50,5 5.31512,-2.80366 -3.47078,-5.09441 0,-10 4.8131,-6.80283 11.13244,-12.61851 15,-20 2.44606,-4.668467 10,-19.729537 10,-25 0,-10 -4.85889,-20.519664 -10,-35 -2.4938,-7.023995 -5.06721,-4.412229 -10,-10 -3.97694,-4.505005 -10,-5 -15,-10 -4.85913,-4.859127 -15.14087,-4.859127 -20,0 -10,10 -15,15 -10,25 3.16228,6.324555 -20,-10 -20,5 0,13.743685 8.32075,26.359288 10,40 1.42547,11.57925 -11.06797,31.31068 0,35 z"
       id="path3907"
       style="opacity:0.5;color:#000000;fill:#afa371;fill-opacity:1;stroke:#afa371;stroke-width:5;stroke-linecap:round;stroke-linejoin:round;stroke-miterlimit:4;stroke-opacity:1;stroke-dasharray:none;marker:none;visibility:visible;display:inline;overflow:visible;enable-background:accumulate" />
  </g>
  <g
     transform="translate(0,-812.36218)"
     id="layer1">
    <path
       d="m 167.5,984.86216 -10,0 -5,-20 50,0 c 5,2e-5 10,5 10,5 l 15,35.00004 c 0,5 -5,5 -5,5 l -25,0 -5,-10.00004 15,0 c 5,2e-5 5,-5 5,-5 l -5,-15 c 0,0 -5,-4.99998 -10,-5 l -35,0 5,10"
       id="path3817"
       style="color:#000000;fill:#ddce85;fill-opacity:1;stroke:#463400;stroke-width:5;stroke-linecap:round;stroke-linejoin:round;stroke-miterlimit:4;stroke-opacity:1;stroke-dasharray:none;stroke-dashoffset:0;marker:none;visibility:visible;display:inline;overflow:visible;enable-background:accumulate" />
    <rect
       width="10.000001"
       height="135.00009"
       rx="5"
       ry="4.9999976"
       x="22.5"
       y="844.86218"
       id="rect3776"
       style="color:#000000;fill:#ddce85;fill-opacity:1;stroke:#463400;stroke-width:5;stroke-linecap:round;stroke-linejoin:round;stroke-miterlimit:4;stroke-opacity:1;stroke-dasharray:none;stroke-dashoffset:0;marker:none;visibility:visible;display:inline;overflow:visible;enable-background:accumulate" />
    <path
       d="m 42.5,964.86216 -20,0 c -5,5 -5,10 0,15 l 20,0 z"
       id="path3854"
       style="color:#000000;fill:#c2b378;fill-opacity:1;stroke:#463400;stroke-width:5;stroke-linecap:round;stroke-linejoin:round;stroke-miterlimit:4;stroke-opacity:1;stroke-dasharray:none;stroke-dashoffset:0;marker:none;visibility:visible;display:inline;overflow:visible;enable-background:accumulate" />
    <path
       d="m 187.5,157.5 10,0"
       transform="translate(0,812.36218)"
       id="path3903"
       style="color:#000000;fill:#a79e79;fill-opacity:1;fill-rule:nonzero;stroke:#d0c083;stroke-width:5;stroke-linecap:round;stroke-linejoin:round;stroke-miterlimit:4;stroke-opacity:1;stroke-dasharray:none;marker:none;visibility:visible;display:inline;overflow:visible;enable-background:accumulate" />
    <path
       d="m 22.5,989.86216 20,-30 140,0 15,30 z"
       id="path3848"
       style="color:#000000;fill:#dfd28f;fill-opacity:1;stroke:#463400;stroke-width:5;stroke-linecap:round;stroke-linejoin:round;stroke-miterlimit:4;stroke-opacity:1;stroke-dasharray:none;stroke-dashoffset:0;marker:none;visibility:visible;display:inline;overflow:visible;enable-background:accumulate" />
    <path
       d="M 198.28086,192.65113 217.5,192.5"
       transform="translate(0,812.36218)"
       id="path3905"
       style="color:#000000;fill:none;stroke:#e5d786;stroke-width:5;stroke-linecap:round;stroke-linejoin:round;stroke-miterlimit:4;stroke-opacity:1;stroke-dasharray:none;marker:none;visibility:visible;display:inline;overflow:visible;enable-background:accumulate" />
    <rect
       width="175"
       height="44.999996"
       ry="10"
       x="22.5"
       y="979.86218"
       id="rect3006"
       style="color:#000000;fill:#c2b378;fill-opacity:1;stroke:#463400;stroke-width:5;stroke-linecap:round;stroke-linejoin:round;stroke-miterlimit:4;stroke-opacity:1;stroke-dasharray:none;stroke-dashoffset:0;marker:none;visibility:visible;display:inline;overflow:visible;enable-background:accumulate" />
    <path
       d="m 112.5,1014.8622 15,-30.00004 5,0 -15,30.00004 z"
       id="path3895-3"
       style="color:#000000;fill:#e3d798;fill-opacity:1;stroke:none;stroke-width:5;marker:none;visibility:visible;display:inline;overflow:visible;enable-background:accumulate" />
    <path
       d="m 77.5,175 a 12.5,12.5 0 1 1 -25,0 12.5,12.5 0 1 1 25,0 z"
       transform="translate(-10,827.36216)"
       id="path3779"
       style="color:#000000;fill:#a4914e;fill-opacity:1;stroke:#000000;stroke-width:5;stroke-linecap:round;stroke-linejoin:round;stroke-miterlimit:4;stroke-opacity:1;stroke-dasharray:none;stroke-dashoffset:0;marker:none;visibility:visible;display:inline;overflow:visible;enable-background:accumulate" />
    <path
       d="m 42.5,1004.8622 15,-15.00004 10,10 -15,15.00004 z"
       id="path3785"
       style="color:#000000;fill:#f0e5b7;fill-opacity:1;stroke:#000000;stroke-width:5;stroke-linecap:round;stroke-linejoin:round;stroke-miterlimit:4;stroke-opacity:1;stroke-dasharray:none;stroke-dashoffset:0;marker:none;visibility:visible;display:inline;overflow:visible;enable-background:accumulate" />
    <path
       d="m 57.5,989.86216 10,0 0,10 z"
       id="path3787"
       style="color:#000000;fill:#a4914e;fill-opacity:1;stroke:#000000;stroke-width:5;stroke-linecap:round;stroke-linejoin:round;stroke-miterlimit:4;stroke-opacity:1;stroke-dasharray:none;stroke-dashoffset:0;marker:none;visibility:visible;display:inline;overflow:visible;enable-background:accumulate" />
    <path
       d="m 77.5,175 a 12.5,12.5 0 1 1 -25,0 12.5,12.5 0 1 1 25,0 z"
       transform="translate(35,827.36216)"
       id="path3779-0"
       style="color:#000000;fill:#a4914e;fill-opacity:1;stroke:#000000;stroke-width:5;stroke-linecap:round;stroke-linejoin:round;stroke-miterlimit:4;stroke-opacity:1;stroke-dasharray:none;stroke-dashoffset:0;marker:none;visibility:visible;display:inline;overflow:visible;enable-background:accumulate" />
    <path
       d="m 87.5,1004.8622 15,-15.00004 10,10 -15,15.00004 z"
       id="path3785-9"
       style="color:#000000;fill:#f0e5b7;fill-opacity:1;stroke:#000000;stroke-width:5;stroke-linecap:round;stroke-linejoin:round;stroke-miterlimit:4;stroke-opacity:1;stroke-dasharray:none;stroke-dashoffset:0;marker:none;visibility:visible;display:inline;overflow:visible;enable-background:accumulate" />
    <path
       d="m 102.5,989.86216 10,0 0,10 z"
       id="path3787-1"
       style="color:#000000;fill:#a4914e;fill-opacity:1;stroke:#000000;stroke-width:5;stroke-linecap:round;stroke-linejoin:round;stroke-miterlimit:4;stroke-opacity:1;stroke-dasharray:none;stroke-dashoffset:0;marker:none;visibility:visible;display:inline;overflow:visible;enable-background:accumulate" />
    <path
       d="m 77.5,175 a 12.5,12.5 0 1 1 -25,0 12.5,12.5 0 1 1 25,0 z"
       transform="translate(105,827.36216)"
       id="path3779-7"
       style="color:#000000;fill:#a4914e;fill-opacity:1;stroke:#000000;stroke-width:5;stroke-linecap:round;stroke-linejoin:round;stroke-miterlimit:4;stroke-opacity:1;stroke-dasharray:none;stroke-dashoffset:0;marker:none;visibility:visible;display:inline;overflow:visible;enable-background:accumulate" />
    <path
       d="m 157.5,1004.8622 15,-15.00004 10,10 -15,15.00004 z"
       id="path3785-1"
       style="color:#000000;fill:#f0e5b7;fill-opacity:1;stroke:#000000;stroke-width:5;stroke-linecap:round;stroke-linejoin:round;stroke-miterlimit:4;stroke-opacity:1;stroke-dasharray:none;stroke-dashoffset:0;marker:none;visibility:visible;display:inline;overflow:visible;enable-background:accumulate" />
    <path
       d="m 172.5,989.86216 10,0 0,10 z"
       id="path3787-2"
       style="color:#000000;fill:#a4914e;fill-opacity:1;stroke:#000000;stroke-width:5;stroke-linecap:round;stroke-linejoin:round;stroke-miterlimit:4;stroke-opacity:1;stroke-dasharray:none;stroke-dashoffset:0;marker:none;visibility:visible;display:inline;overflow:visible;enable-background:accumulate" />
    <path
       d="m 27.5,989.86216 0,25.00004 c 0,5 5,5 5,5 l 155,0 c 5,0 5,-5 5,-5 l 0,-25.00004"
       id="path3850"
       style="color:#000000;fill:none;stroke:#78650a;stroke-width:5;stroke-linecap:round;stroke-linejoin:round;stroke-miterlimit:4;stroke-opacity:1;stroke-dasharray:none;stroke-dashoffset:0;marker:none;visibility:visible;display:inline;overflow:visible;enable-background:accumulate" />
    <path
       d="m 102.5,974.86216 15,-10 15,0 -10,10 z"
       id="path3856"
       style="color:#000000;fill:#d0c083;fill-opacity:1;stroke:#d0c083;stroke-width:5;stroke-linecap:round;stroke-linejoin:miter;stroke-opacity:1;marker:none;visibility:visible;display:inline;overflow:visible;enable-background:accumulate" />
    <path
       d="m 122.5,1014.8622 15,-30.00004 10,0 -10,30.00004 z"
       id="path3895"
       style="color:#000000;fill:#e3d798;fill-opacity:1;stroke:none;stroke-width:5;marker:none;visibility:visible;display:inline;overflow:visible;enable-background:accumulate" />
    <path
       d="m 27.5,37.5 0,10"
       transform="translate(0,812.36218)"
       id="path3783"
       style="color:#000000;fill:none;stroke:#e3d798;stroke-width:5;stroke-linecap:round;stroke-linejoin:round;stroke-miterlimit:4;stroke-opacity:1;stroke-dasharray:none;marker:none;visibility:visible;display:inline;overflow:visible;enable-background:accumulate" />
    <path
       d="m 27.5,854.86218 0,30"
       id="path3781"
       style="color:#000000;fill:none;stroke:#d0c083;stroke-width:5;stroke-linecap:round;stroke-linejoin:round;stroke-miterlimit:4;stroke-opacity:1;stroke-dasharray:none;marker:none;visibility:visible;display:inline;overflow:visible;enable-background:accumulate" />
  </g>
  <g
     id="layer2">
    <path
       d="m 67.5,27.49998 c 30,50 0,95 0,95"
       id="path3860-1"
       style="opacity:0.8;color:#000000;fill:none;stroke:#dacc94;stroke-width:15;stroke-linecap:round;stroke-linejoin:round;stroke-miterlimit:4;stroke-opacity:1;stroke-dasharray:none;stroke-dashoffset:0;marker:none;visibility:visible;display:inline;overflow:visible;enable-background:accumulate" />
    <path
       d="m 47.5,107.49998 c 20,-30 0,-65 0,-65"
       id="path3858-2"
       style="opacity:0.8;color:#000000;fill:none;stroke:#dacc94;stroke-width:15;stroke-linecap:round;stroke-linejoin:round;stroke-miterlimit:4;stroke-opacity:1;stroke-dasharray:none;stroke-dashoffset:0;marker:none;visibility:visible;display:inline;overflow:visible;enable-background:accumulate" />
    <path
       d="m 67.5,27.49998 c 30,50 0,95 0,95"
       id="path3860"
       style="opacity:0.5;color:#000000;fill:none;stroke:#000000;stroke-width:5;stroke-linecap:round;stroke-linejoin:round;stroke-miterlimit:4;stroke-opacity:1;stroke-dasharray:none;stroke-dashoffset:0;marker:none;visibility:visible;display:inline;overflow:visible;enable-background:accumulate" />
    <path
       d="m 177.5,77.49998 0,-20 c 10,-5 10,20 10,30 l -10,20 -15,10 -5,15.00002 c 0,0 -10.89784,-2.6774 -15,-5 -5.97988,-3.38575 -13.13322,-0.26372 -20,0 -5.26658,0.20226 -10,-5 -10,-5 l 5,-20.00002 c 0,0 -2.21997,-13.715602 -5,-20 -2.43106,-5.495547 -5,-13.333333 -5,-20 0,-20 11.75798,-16.28405 15,-10 2.4867,4.819992 1.63147,6.874101 5,15 28.38407,-28.107958 41.15599,-10.227971 50,10 z"
       id="path3852"
       style="color:#000000;fill:#f5f3f0;fill-opacity:1;stroke:#606060;stroke-width:5;stroke-linecap:round;stroke-linejoin:round;stroke-miterlimit:4;stroke-opacity:1;stroke-dasharray:none;stroke-dashoffset:0;marker:none;visibility:visible;display:inline;overflow:visible;enable-background:accumulate" />
    <path
       d="m 183.75,66.68748 -3.875,11.59375 -2.375,4.21875 -5,15 -10,15 -10,10 5,5.00002 2.5625,-10.59377 c 0.14907,-0.60948 0.53701,-1.15716 1.0625,-1.5 L 175.53125,105.81248 185,86.87498 c -0.001,-4.985802 -0.0482,-12.02769 -0.625,-17.21875 -0.15865,-1.427829 -0.38964,-1.963589 -0.625,-2.96875 z"
       id="path3915"
       style="color:#000000;fill:#eae7e0;fill-opacity:1;stroke:none;stroke-width:5;marker:none;visibility:visible;display:inline;overflow:visible;enable-background:accumulate" />
    <path
       d="m 47.5,107.49998 c 20,-30 0,-65 0,-65"
       id="path3858"
       style="opacity:0.5;color:#000000;fill:none;stroke:#000000;stroke-width:5;stroke-linecap:round;stroke-linejoin:round;stroke-miterlimit:4;stroke-opacity:1;stroke-dasharray:none;stroke-dashoffset:0;marker:none;visibility:visible;display:inline;overflow:visible;enable-background:accumulate" />
    <path
       d="m 162.5,72.49998 c 0,0 5.26372,-8.133219 5,-15 -0.20226,-5.26658 -13.72678,-21.27322 -10,-25 3.82489,-3.824895 11.65982,-0.777577 15.77597,4.541508 4.22403,5.458492 9.10371,13.943336 9.22403,20.458492 0,5 -5,20 -5,20"
       id="path3885"
       style="color:#000000;fill:#f5f3f0;fill-opacity:1;stroke:#606060;stroke-width:5;stroke-linecap:round;stroke-linejoin:round;stroke-miterlimit:4;stroke-opacity:1;stroke-dasharray:none;stroke-dashoffset:0;marker:none;visibility:visible;display:inline;overflow:visible;enable-background:accumulate" />
    <path
       d="m 147.5,72.49998 c 0,0 1.26072,-13.453624 0,-20 -1.69729,-8.813328 -10,-25 -10,-25 -1.85695,-4.642383 10.0332,-12.450211 15,-5 0,0 7.56894,9.504453 10,15 2.78003,6.284398 5,13.128157 5,20 0,6.871843 -5,15 -5,15"
       id="path3887"
       style="color:#000000;fill:#f5f3f0;fill-opacity:1;stroke:#606060;stroke-width:5;stroke-linecap:round;stroke-linejoin:round;stroke-miterlimit:4;stroke-opacity:1;stroke-dasharray:none;stroke-dashoffset:0;marker:none;visibility:visible;display:inline;overflow:visible;enable-background:accumulate" />
    <path
       d="m 127.5,72.49998 c 0,0 5,-16.604228 5,-20 0,-3.395772 -5,-16.585241 -5,-20 0,-3.414759 -0.7126,-8.469314 5,-10 5.7126,-1.530686 8.22965,3.229648 10,5 1.77035,1.770352 10,21.930146 10,25 0,3.069854 -5,20 -5,20"
       id="path3889"
       style="color:#000000;fill:#f5f3f0;fill-opacity:1;stroke:#606060;stroke-width:5;stroke-linecap:round;stroke-linejoin:round;stroke-miterlimit:4;stroke-opacity:1;stroke-dasharray:none;stroke-dashoffset:0;marker:none;visibility:visible;display:inline;overflow:visible;enable-background:accumulate" />
    <path
       d="m 107.5,122.5 5,-10 c 0,0 18.83393,1.61918 30,5 5.75141,1.74139 20,5 20,5 0,5 0,10 -5,10 0,0 -1.67505,0.2363 -5,0 -11.75546,-0.83544 -24.45907,0.27046 -35,-5 -2.10819,-1.05409 -10,-5 -10,-5 z"
       id="path3786"
       style="color:#000000;fill:#f5f3f0;fill-opacity:1;fill-rule:nonzero;stroke:#606060;stroke-width:5;stroke-linecap:round;stroke-linejoin:round;stroke-miterlimit:4;stroke-opacity:1;stroke-dasharray:none;marker:none;visibility:visible;display:inline;overflow:visible;enable-background:accumulate" />
  </g>
</svg>
